<!-- method 2 - 12 circles with stroke dash -->
<svg xmlns="http://www.w3.org/2000/svg" viewBox="0 0 100 100">
    <g>
        <circle class="circleComponent" r="30" cx="50" cy="50" stroke="rgb(252, 254, 7)" transform="rotate(-90.0 50 50)" stroke-dasharray="15.707963267948964 188.49555921538757" stroke-width="30" fill="none"/>
        <circle class="circleComponent" r="30" cx="50" cy="50" stroke="rgb(252, 143, 9)" transform="rotate(-60.0 50 50)" stroke-dasharray="15.707963267948964 188.49555921538757" stroke-width="30" fill="none"/>
        <circle class="circleComponent" r="30" cx="50" cy="50" stroke="rgb(252, 91, 9)" transform="rotate(-30.0 50 50)" stroke-dasharray="15.707963267948964 188.49555921538757" stroke-width="30" fill="none"/>
        <circle class="circleComponent" r="30" cx="50" cy="50" stroke="rgb(252, 44, 8)" transform="rotate(0.0 50 50)" stroke-dasharray="15.707963267948964 188.49555921538757" stroke-width="30" fill="none"/>
        <circle class="circleComponent" r="30" cx="50" cy="50" stroke="rgb(198, 6, 9)" transform="rotate(30.0 50 50)" stroke-dasharray="15.707963267948964 188.49555921538757" stroke-width="30" fill="none"/>
        <circle class="circleComponent" r="30" cx="50" cy="50" stroke="rgb(145, 6, 89)" transform="rotate(60.0 50 50)" stroke-dasharray="15.707963267948964 188.49555921538757" stroke-width="30" fill="none"/>
        <circle class="circleComponent" r="30" cx="50" cy="50" stroke="rgb(89, 6, 90)" transform="rotate(90.0 50 50)" stroke-dasharray="15.707963267948964 188.49555921538757" stroke-width="30" fill="none"/>
        <circle class="circleComponent" r="30" cx="50" cy="50" stroke="rgb(8, 6, 88)" transform="rotate(120.0 50 50)" stroke-dasharray="15.707963267948964 188.49555921538757" stroke-width="30" fill="none"/>
        <circle class="circleComponent" r="30" cx="50" cy="50" stroke="rgb(13, 50, 144)" transform="rotate(150.0 50 50)" stroke-dasharray="15.707963267948964 188.49555921538757" stroke-width="30" fill="none"/>
        <circle class="circleComponent" r="30" cx="50" cy="50" stroke="rgb(8, 91, 90)" transform="rotate(180.0 50 50)" stroke-dasharray="15.707963267948964 188.49555921538757" stroke-width="30" fill="none"/>
        <circle class="circleComponent" r="30" cx="50" cy="50" stroke="rgb(47, 141, 11)" transform="rotate(210.0 50 50)" stroke-dasharray="15.707963267948964 188.49555921538757" stroke-width="30" fill="none"/>
        <circle class="circleComponent" r="30" cx="50" cy="50" stroke="rgb(88, 200, 0)" transform="rotate(240.0 50 50)" stroke-dasharray="15.707963267948964 188.49555921538757" stroke-width="30" fill="none"/>
    </g>
</svg>
