<!DOCTYPE svg PUBLIC "-//W3C//DTD SVG 1.1//EN" "http://www.w3.org/Graphics/SVG/1.1/DTD/svg11.dtd">
<!-- Generated by graphviz version 2.40.1 (20161225.0304)
 -->
<!-- Title: Tree Pages: 1 -->
<svg class="decision-graph" viewBox="0.00 0.00 678.83 623.00" xmlns="http://www.w3.org/2000/svg" xmlns:xlink="http://www.w3.org/1999/xlink">
    <g id="graph0" class="graph" transform="scale(1 1) rotate(0) translate(4 619)">
        <title>Tree</title>
        <polygon fill="#ffffff" stroke="transparent" points="-4,4 -4,-619 674.825,-619 674.825,4 -4,4" />
        <!-- question1 -->
        <g id="node1" class="node">
            <title>question1</title>
            <path fill="#a6cee3" stroke="#1f78b4" d="M159.939,-448.5C159.939,-448.5 483.886,-448.5 483.886,-448.5 489.886,-448.5 495.886,-454.5 495.886,-460.5 495.886,-460.5 495.886,-602.5 495.886,-602.5 495.886,-608.5 489.886,-614.5 483.886,-614.5 483.886,-614.5 159.939,-614.5 159.939,-614.5 153.939,-614.5 147.939,-608.5 147.939,-602.5 147.939,-602.5 147.939,-460.5 147.939,-460.5 147.939,-454.5 153.939,-448.5 159.939,-448.5" />
            <text text-anchor="middle" x="321.9125" y="-558.5" font-family="Roboto-Light" font-size="30.00" fill="#000000">Did the student do more</text>
            <text text-anchor="middle" x="321.9125" y="-522.5" font-family="Roboto-Light" font-size="30.00" fill="#000000"> than 5 hours study?</text>
            <text text-anchor="middle" x="321.9125" y="-486.5" font-family="Roboto-Light" font-size="30.00" fill="#000000">(100 students)</text>
        </g>
        <!-- question2_1 -->
        <g id="node2" class="node">
            <title>question2_1</title>
            <path fill="#a6cee3" stroke="#1f78b4" d="M49.774,-209.5C49.774,-209.5 302.051,-209.5 302.051,-209.5 308.051,-209.5 314.051,-215.5 314.051,-221.5 314.051,-221.5 314.051,-363.5 314.051,-363.5 314.051,-369.5 308.051,-375.5 302.051,-375.5 302.051,-375.5 49.774,-375.5 49.774,-375.5 43.774,-375.5 37.774,-369.5 37.774,-363.5 37.774,-363.5 37.774,-221.5 37.774,-221.5 37.774,-215.5 43.774,-209.5 49.774,-209.5" />
            <text text-anchor="middle" x="175.9125" y="-319.5" font-family="Roboto-Light" font-size="30.00" fill="#000000">Is the students I.Q</text>
            <text text-anchor="middle" x="175.9125" y="-283.5" font-family="Roboto-Light" font-size="30.00" fill="#000000">more than 100?</text>
            <text text-anchor="middle" x="175.9125" y="-247.5" font-family="Roboto-Light" font-size="30.00" fill="#000000">(70 students)</text>
        </g>
        <!-- question1&#45;&gt;question2_1 -->
        <g id="edge1" class="edge">
            <title>question1&#45;&gt;question2_1</title>
            <path fill="none" stroke="#000000" d="M271.0537,-448.2449C258.4683,-427.6427 244.913,-405.4529 232.0901,-384.4619" />
            <polygon fill="#000000" stroke="#000000" points="235.036,-382.5703 226.8361,-375.8612 229.0624,-386.2195 235.036,-382.5703" />
            <text text-anchor="middle" x="284.983" y="-403" font-family="Roboto-Light" font-size="30.00" fill="#000000"> Yes</text>
        </g>
        <!-- question2_2 -->
        <g id="node3" class="node">
            <title>question2_2</title>
            <path fill="#a6cee3" stroke="#1f78b4" d="M343.774,-209.5C343.774,-209.5 596.051,-209.5 596.051,-209.5 602.051,-209.5 608.051,-215.5 608.051,-221.5 608.051,-221.5 608.051,-363.5 608.051,-363.5 608.051,-369.5 602.051,-375.5 596.051,-375.5 596.051,-375.5 343.774,-375.5 343.774,-375.5 337.774,-375.5 331.774,-369.5 331.774,-363.5 331.774,-363.5 331.774,-221.5 331.774,-221.5 331.774,-215.5 337.774,-209.5 343.774,-209.5" />
            <text text-anchor="middle" x="469.9125" y="-319.5" font-family="Roboto-Light" font-size="30.00" fill="#000000">Is the students I.Q</text>
            <text text-anchor="middle" x="469.9125" y="-283.5" font-family="Roboto-Light" font-size="30.00" fill="#000000"> more than 100?</text>
            <text text-anchor="middle" x="469.9125" y="-247.5" font-family="Roboto-Light" font-size="30.00" fill="#000000">(30 students)</text>
        </g>
        <!-- question1&#45;&gt;question2_2 -->
        <g id="edge2" class="edge">
            <title>question1&#45;&gt;question2_2</title>
            <path fill="none" stroke="#000000" d="M373.468,-448.2449C386.2258,-427.6427 399.9668,-405.4529 412.9654,-384.4619" />
            <polygon fill="#000000" stroke="#000000" points="416.0022,-386.2058 418.2913,-375.8612 410.0508,-382.5204 416.0022,-386.2058" />
            <text text-anchor="middle" x="426.991" y="-403" font-family="Roboto-Light" font-size="30.00" fill="#000000"> No</text>
        </g>
        <!-- out1 -->
        <g id="node4" class="node">
            <title>out1</title>
            <path fill="#b2df8a" stroke="#33a02c" d="M12,-.5C12,-.5 137.825,-.5 137.825,-.5 143.825,-.5 149.825,-6.5 149.825,-12.5 149.825,-12.5 149.825,-124.5 149.825,-124.5 149.825,-130.5 143.825,-136.5 137.825,-136.5 137.825,-136.5 12,-136.5 12,-136.5 6,-136.5 0,-130.5 0,-124.5 0,-124.5 0,-12.5 0,-12.5 0,-6.5 6,-.5 12,-.5" />
            <text text-anchor="middle" x="74.9125" y="-95.5" font-family="Roboto-Light" font-size="30.00" fill="#000000">20 students</text>
            <text text-anchor="middle" x="74.9125" y="-59.5" font-family="Roboto-Light" font-size="30.00" fill="#000000">18 Passes</text>
            <text text-anchor="middle" x="74.9125" y="-23.5" font-family="Roboto-Light" font-size="30.00" fill="#000000">2 Fails</text>
        </g>
        <!-- question2_1&#45;&gt;out1 -->
        <g id="edge3" class="edge">
            <title>question2_1&#45;&gt;out1</title>
            <path fill="none" stroke="#000000" d="M138.4474,-209.409C129.1001,-188.6784 119.1132,-166.5294 109.8913,-146.0768" />
            <polygon fill="#000000" stroke="#000000" points="113.0142,-144.4877 105.7131,-136.8102 106.6329,-147.365 113.0142,-144.4877" />
            <text text-anchor="middle" x="155.983" y="-164" font-family="Roboto-Light" font-size="30.00" fill="#000000"> Yes</text>
        </g>
        <!-- out2 -->
        <g id="node5" class="node">
            <title>out2</title>
            <path fill="#b2df8a" stroke="#33a02c" d="M180,-.5C180,-.5 305.825,-.5 305.825,-.5 311.825,-.5 317.825,-6.5 317.825,-12.5 317.825,-12.5 317.825,-124.5 317.825,-124.5 317.825,-130.5 311.825,-136.5 305.825,-136.5 305.825,-136.5 180,-136.5 180,-136.5 174,-136.5 168,-130.5 168,-124.5 168,-124.5 168,-12.5 168,-12.5 168,-6.5 174,-.5 180,-.5" />
            <text text-anchor="middle" x="242.9125" y="-95.5" font-family="Roboto-Light" font-size="30.00" fill="#000000">50 students</text>
            <text text-anchor="middle" x="242.9125" y="-59.5" font-family="Roboto-Light" font-size="30.00" fill="#000000">40 Passes</text>
            <text text-anchor="middle" x="242.9125" y="-23.5" font-family="Roboto-Light" font-size="30.00" fill="#000000">10 Fails</text>
        </g>
        <!-- question2_1&#45;&gt;out2 -->
        <g id="edge4" class="edge">
            <title>question2_1&#45;&gt;out2</title>
            <path fill="none" stroke="#000000" d="M200.7656,-209.409C206.9104,-188.8652 213.4719,-166.9283 219.5433,-146.63" />
            <polygon fill="#000000" stroke="#000000" points="222.968,-147.3938 222.4804,-136.8102 216.2615,-145.3878 222.968,-147.3938" />
            <text text-anchor="middle" x="237.991" y="-164" font-family="Roboto-Light" font-size="30.00" fill="#000000"> No</text>
        </g>
        <!-- out3 -->
        <g id="node6" class="node">
            <title>out3</title>
            <path fill="#b2df8a" stroke="#33a02c" d="M380.5,-.5C380.5,-.5 491.325,-.5 491.325,-.5 497.325,-.5 503.325,-6.5 503.325,-12.5 503.325,-12.5 503.325,-124.5 503.325,-124.5 503.325,-130.5 497.325,-136.5 491.325,-136.5 491.325,-136.5 380.5,-136.5 380.5,-136.5 374.5,-136.5 368.5,-130.5 368.5,-124.5 368.5,-124.5 368.5,-12.5 368.5,-12.5 368.5,-6.5 374.5,-.5 380.5,-.5" />
            <text text-anchor="middle" x="435.9125" y="-95.5" font-family="Roboto-Light" font-size="30.00" fill="#000000">5 students</text>
            <text text-anchor="middle" x="435.9125" y="-59.5" font-family="Roboto-Light" font-size="30.00" fill="#000000">4 Passes</text>
            <text text-anchor="middle" x="435.9125" y="-23.5" font-family="Roboto-Light" font-size="30.00" fill="#000000">1 Fails</text>
        </g>
        <!-- question2_2&#45;&gt;out3 -->
        <g id="edge5" class="edge">
            <title>question2_2&#45;&gt;out3</title>
            <path fill="none" stroke="#000000" d="M457.3005,-209.409C454.1964,-188.9585 450.8828,-167.1277 447.8135,-146.9069" />
            <polygon fill="#000000" stroke="#000000" points="451.2421,-146.1717 446.281,-136.8102 444.3214,-147.2222 451.2421,-146.1717" />
            <text text-anchor="middle" x="481.983" y="-164" font-family="Roboto-Light" font-size="30.00" fill="#000000"> Yes</text>
        </g>
        <!-- out4 -->
        <g id="node7" class="node">
            <title>out4</title>
            <path fill="#b2df8a" stroke="#33a02c" d="M533,-.5C533,-.5 658.825,-.5 658.825,-.5 664.825,-.5 670.825,-6.5 670.825,-12.5 670.825,-12.5 670.825,-124.5 670.825,-124.5 670.825,-130.5 664.825,-136.5 658.825,-136.5 658.825,-136.5 533,-136.5 533,-136.5 527,-136.5 521,-130.5 521,-124.5 521,-124.5 521,-12.5 521,-12.5 521,-6.5 527,-.5 533,-.5" />
            <text text-anchor="middle" x="595.9125" y="-95.5" font-family="Roboto-Light" font-size="30.00" fill="#000000">25 students</text>
            <text text-anchor="middle" x="595.9125" y="-59.5" font-family="Roboto-Light" font-size="30.00" fill="#000000">10 Passes</text>
            <text text-anchor="middle" x="595.9125" y="-23.5" font-family="Roboto-Light" font-size="30.00" fill="#000000">15 Fails</text>
        </g>
        <!-- question2_2&#45;&gt;out4 -->
        <g id="edge6" class="edge">
            <title>question2_2&#45;&gt;out4</title>
            <path fill="none" stroke="#000000" d="M516.6512,-209.409C528.3647,-188.585 540.8832,-166.3298 552.431,-145.8005" />
            <polygon fill="#000000" stroke="#000000" points="555.6359,-147.2419 557.488,-136.8102 549.5348,-143.81 555.6359,-147.2419" />
            <text text-anchor="middle" x="565.991" y="-164" font-family="Roboto-Light" font-size="30.00" fill="#000000"> No</text>
        </g>
    </g>
</svg>