<svg viewBox="0 0 308 342" fill="none" xmlns="http://www.w3.org/2000/svg" style="max-height: 200px">
<rect x="8" width="300" height="342" fill="white"/>
<rect width="7.71314" height="60.7329" transform="matrix(-0.456204 -0.889875 0.886657 -0.462427 231.519 159.948)" fill="#D9D9D9"/>
<path d="M222 141.5C222 139.291 223.791 137.5 226 137.5H231C233.209 137.5 235 139.291 235 141.5V166.5C235 168.709 233.209 170.5 231 170.5H226C223.791 170.5 222 168.709 222 166.5V141.5Z" fill="#4C4343"/>
<path d="M90 250H227L248 278H70L90 250Z" fill="#B38D8D"/>
<path d="M90 124.918H227V250H90V124.918Z" fill="#E3D3D3"/>
<path d="M90 113.703C90 102.269 100.745 93 114 93H203C216.255 93 227 102.269 227 113.703V137.857C227 149.291 216.255 158.56 203 158.56H114C100.745 158.56 90 149.291 90 137.857V113.703Z" fill="#E3D3D3"/>
<path d="M92.5 254H224.5L239.5 275H78.5L92.5 254Z" fill="#D9D9D9"/>
<g opacity="0.7">
<rect x="146" y="153" width="29" height="56" fill="#FCF6F6"/>
<rect x="146" y="153" width="29" height="56" fill="#FCF6F6"/>
<rect x="146" y="153" width="29" height="56" fill="#FCF6F6"/>
<rect x="146" y="153" width="29" height="56" fill="#FCF6F6"/>
</g>
<path d="M153.927 170.61V171.585H152.951V170.61H153.927ZM154.902 170.61V171.585H153.927V170.61H154.902ZM155.878 170.61V171.585H154.902V170.61H155.878ZM156.854 170.61V171.585H155.878V170.61H156.854ZM157.829 170.61V171.585H156.854V170.61H157.829ZM158.805 170.61V171.585H157.829V170.61H158.805ZM159.78 170.61V171.585H158.805V170.61H159.78ZM160.756 170.61V171.585H159.78V170.61H160.756ZM161.732 170.61V171.585H160.756V170.61H161.732ZM162.707 170.61V171.585H161.732V170.61H162.707ZM162.707 171.585V172.561H161.732V171.585H162.707ZM163.683 171.585V172.561H162.707V171.585H163.683ZM164.659 171.585V172.561H163.683V171.585H164.659ZM165.634 171.585V172.561H164.659V171.585H165.634ZM166.61 171.585V172.561H165.634V171.585H166.61ZM166.61 170.61V171.585H165.634V170.61H166.61ZM167.585 170.61V171.585H166.61V170.61H167.585ZM165.634 170.61V171.585H164.659V170.61H165.634ZM164.659 170.61V171.585H163.683V170.61H164.659ZM163.683 170.61V171.585H162.707V170.61H163.683ZM156.854 171.585V172.561H155.878V171.585H156.854ZM155.878 171.585V172.561H154.902V171.585H155.878ZM154.902 171.585V172.561H153.927V171.585H154.902ZM153.927 171.585V172.561H152.951V171.585H153.927ZM153.927 172.561V173.537H152.951V172.561H153.927ZM153.927 173.537V174.512H152.951V173.537H153.927ZM153.927 174.512V175.488H152.951V174.512H153.927ZM154.902 174.512V175.488H153.927V174.512H154.902ZM155.878 174.512V175.488H154.902V174.512H155.878ZM156.854 174.512V175.488H155.878V174.512H156.854ZM157.829 174.512V175.488H156.854V174.512H157.829ZM158.805 174.512V175.488H157.829V174.512H158.805ZM159.78 174.512V175.488H158.805V174.512H159.78ZM160.756 174.512V175.488H159.78V174.512H160.756ZM161.732 174.512V175.488H160.756V174.512H161.732ZM162.707 174.512V175.488H161.732V174.512H162.707ZM162.707 175.488V176.463H161.732V175.488H162.707ZM162.707 176.463V177.439H161.732V176.463H162.707ZM162.707 177.439V178.415H161.732V177.439H162.707ZM162.707 178.415V179.39H161.732V178.415H162.707ZM162.707 179.39V180.366H161.732V179.39H162.707ZM161.732 179.39V180.366H160.756V179.39H161.732ZM161.732 180.366V181.341H160.756V180.366H161.732ZM161.732 181.341V182.317H160.756V181.341H161.732ZM160.756 181.341V182.317H159.78V181.341H160.756ZM160.756 182.317V183.293H159.78V182.317H160.756ZM160.756 183.293V184.268H159.78V183.293H160.756ZM159.78 183.293V184.268H158.805V183.293H159.78ZM159.78 184.268V185.244H158.805V184.268H159.78ZM159.78 185.244V186.22H158.805V185.244H159.78ZM158.805 185.244V186.22H157.829V185.244H158.805ZM158.805 186.22V187.195H157.829V186.22H158.805ZM158.805 187.195V188.171H157.829V187.195H158.805ZM158.805 188.171V189.146H157.829V188.171H158.805ZM158.805 189.146V190.122H157.829V189.146H158.805ZM158.805 190.122V191.098H157.829V190.122H158.805ZM158.805 191.098V192.073H157.829V191.098H158.805ZM158.805 192.073V193.049H157.829V192.073H158.805ZM158.805 193.049V194.024H157.829V193.049H158.805ZM158.805 194.024V195H157.829V194.024H158.805ZM159.78 194.024V195H158.805V194.024H159.78ZM160.756 193.049V194.024H159.78V193.049H160.756ZM161.732 193.049V194.024H160.756V193.049H161.732ZM161.732 194.024V195H160.756V194.024H161.732ZM160.756 194.024V195H159.78V194.024H160.756ZM162.707 194.024V195H161.732V194.024H162.707ZM162.707 193.049V194.024H161.732V193.049H162.707ZM162.707 192.073V193.049H161.732V192.073H162.707ZM162.707 191.098V192.073H161.732V191.098H162.707ZM162.707 190.122V191.098H161.732V190.122H162.707ZM162.707 189.146V190.122H161.732V189.146H162.707ZM162.707 188.171V189.146H161.732V188.171H162.707ZM162.707 187.195V188.171H161.732V187.195H162.707ZM162.707 186.22V187.195H161.732V186.22H162.707ZM163.683 186.22V187.195H162.707V186.22H163.683ZM163.683 185.244V186.22H162.707V185.244H163.683ZM163.683 184.268V185.244H162.707V184.268H163.683ZM164.659 184.268V185.244H163.683V184.268H164.659ZM164.659 183.293V184.268H163.683V183.293H164.659ZM164.659 182.317V183.293H163.683V182.317H164.659ZM165.634 182.317V183.293H164.659V182.317H165.634ZM165.634 181.341V182.317H164.659V181.341H165.634ZM165.634 180.366V181.341H164.659V180.366H165.634ZM166.61 180.366V181.341H165.634V180.366H166.61ZM166.61 179.39V180.366H165.634V179.39H166.61ZM166.61 178.415V179.39H165.634V178.415H166.61ZM167.585 178.415V179.39H166.61V178.415H167.585ZM167.585 171.585V172.561H166.61V171.585H167.585ZM167.585 172.561V173.537H166.61V172.561H167.585ZM167.585 174.512V175.488H166.61V174.512H167.585ZM167.585 175.488V176.463H166.61V175.488H167.585ZM167.585 176.463V177.439H166.61V176.463H167.585ZM167.585 177.439V178.415H166.61V177.439H167.585ZM167.585 173.537V174.512H166.61V173.537H167.585ZM166.61 175.488V176.463H165.634V175.488H166.61ZM166.61 176.463V177.439H165.634V176.463H166.61ZM166.61 177.439V178.415H165.634V177.439H166.61ZM165.634 178.415V179.39H164.659V178.415H165.634ZM165.634 179.39V180.366H164.659V179.39H165.634ZM164.659 180.366V181.341H163.683V180.366H164.659ZM164.659 181.341V182.317H163.683V181.341H164.659ZM163.683 181.341V182.317H162.707V181.341H163.683ZM162.707 181.341V182.317H161.732V181.341H162.707ZM162.707 180.366V181.341H161.732V180.366H162.707ZM163.683 180.366V181.341H162.707V180.366H163.683ZM164.659 179.39V180.366H163.683V179.39H164.659ZM165.634 177.439V178.415H164.659V177.439H165.634ZM164.659 177.439V178.415H163.683V177.439H164.659ZM164.659 178.415V179.39H163.683V178.415H164.659ZM163.683 178.415V179.39H162.707V178.415H163.683ZM163.683 179.39V180.366H162.707V179.39H163.683ZM163.683 177.439V178.415H162.707V177.439H163.683ZM161.732 182.317V183.293H160.756V182.317H161.732ZM162.707 182.317V183.293H161.732V182.317H162.707ZM163.683 182.317V183.293H162.707V182.317H163.683ZM163.683 183.293V184.268H162.707V183.293H163.683ZM162.707 184.268V185.244H161.732V184.268H162.707ZM162.707 183.293V184.268H161.732V183.293H162.707ZM161.732 183.293V184.268H160.756V183.293H161.732ZM161.732 184.268V185.244H160.756V184.268H161.732ZM161.732 185.244V186.22H160.756V185.244H161.732ZM160.756 185.244V186.22H159.78V185.244H160.756ZM160.756 184.268V185.244H159.78V184.268H160.756ZM162.707 185.244V186.22H161.732V185.244H162.707ZM161.732 186.22V187.195H160.756V186.22H161.732ZM161.732 187.195V188.171H160.756V187.195H161.732ZM161.732 188.171V189.146H160.756V188.171H161.732ZM161.732 189.146V190.122H160.756V189.146H161.732ZM161.732 190.122V191.098H160.756V190.122H161.732ZM161.732 191.098V192.073H160.756V191.098H161.732ZM161.732 192.073V193.049H160.756V192.073H161.732ZM160.756 192.073V193.049H159.78V192.073H160.756ZM160.756 191.098V192.073H159.78V191.098H160.756ZM160.756 190.122V191.098H159.78V190.122H160.756ZM160.756 189.146V190.122H159.78V189.146H160.756ZM160.756 188.171V189.146H159.78V188.171H160.756ZM160.756 187.195V188.171H159.78V187.195H160.756ZM160.756 186.22V187.195H159.78V186.22H160.756ZM159.78 187.195V188.171H158.805V187.195H159.78ZM159.78 188.171V189.146H158.805V188.171H159.78ZM159.78 189.146V190.122H158.805V189.146H159.78ZM159.78 186.22V187.195H158.805V186.22H159.78ZM159.78 190.122V191.098H158.805V190.122H159.78ZM159.78 191.098V192.073H158.805V191.098H159.78ZM159.78 192.073V193.049H158.805V192.073H159.78ZM159.78 193.049V194.024H158.805V193.049H159.78ZM154.902 173.537V174.512H153.927V173.537H154.902ZM155.878 173.537V174.512H154.902V173.537H155.878ZM156.854 173.537V174.512H155.878V173.537H156.854ZM157.829 173.537V174.512H156.854V173.537H157.829ZM155.878 172.561V173.537H154.902V172.561H155.878ZM154.902 172.561V173.537H153.927V172.561H154.902ZM156.854 172.561V173.537H155.878V172.561H156.854ZM157.829 172.561V173.537H156.854V172.561H157.829ZM158.805 172.561V173.537H157.829V172.561H158.805ZM158.805 171.585V172.561H157.829V171.585H158.805ZM157.829 171.585V172.561H156.854V171.585H157.829ZM159.78 171.585V172.561H158.805V171.585H159.78ZM160.756 171.585V172.561H159.78V171.585H160.756ZM161.732 171.585V172.561H160.756V171.585H161.732ZM160.756 172.561V173.537H159.78V172.561H160.756ZM159.78 172.561V173.537H158.805V172.561H159.78ZM158.805 173.537V174.512H157.829V173.537H158.805ZM159.78 173.537V174.512H158.805V173.537H159.78ZM160.756 173.537V174.512H159.78V173.537H160.756ZM161.732 173.537V174.512H160.756V173.537H161.732ZM162.707 173.537V174.512H161.732V173.537H162.707ZM163.683 173.537V174.512H162.707V173.537H163.683ZM163.683 174.512V175.488H162.707V174.512H163.683ZM163.683 175.488V176.463H162.707V175.488H163.683ZM163.683 176.463V177.439H162.707V176.463H163.683ZM164.659 176.463V177.439H163.683V176.463H164.659ZM165.634 176.463V177.439H164.659V176.463H165.634ZM165.634 175.488V176.463H164.659V175.488H165.634ZM164.659 175.488V176.463H163.683V175.488H164.659ZM164.659 174.512V175.488H163.683V174.512H164.659ZM165.634 174.512V175.488H164.659V174.512H165.634ZM166.61 174.512V175.488H165.634V174.512H166.61ZM166.61 173.537V174.512H165.634V173.537H166.61ZM165.634 173.537V174.512H164.659V173.537H165.634ZM164.659 173.537V174.512H163.683V173.537H164.659ZM164.659 172.561V173.537H163.683V172.561H164.659ZM165.634 172.561V173.537H164.659V172.561H165.634ZM166.61 172.561V173.537H165.634V172.561H166.61ZM163.683 172.561V173.537H162.707V172.561H163.683ZM162.707 172.561V173.537H161.732V172.561H162.707ZM161.732 172.561V173.537H160.756V172.561H161.732Z" fill="black"/>
<g opacity="0.7">
<rect x="109" y="153" width="29" height="56" fill="#FCF6F6"/>
<rect x="109" y="153" width="29" height="56" fill="#FCF6F6"/>
<rect x="109" y="153" width="29" height="56" fill="#FCF6F6"/>
<rect x="109" y="153" width="29" height="56" fill="#FCF6F6"/>
</g>
<path d="M116.927 170.61V171.585H115.951V170.61H116.927ZM117.902 170.61V171.585H116.927V170.61H117.902ZM118.878 170.61V171.585H117.902V170.61H118.878ZM119.854 170.61V171.585H118.878V170.61H119.854ZM120.829 170.61V171.585H119.854V170.61H120.829ZM121.805 170.61V171.585H120.829V170.61H121.805ZM122.78 170.61V171.585H121.805V170.61H122.78ZM123.756 170.61V171.585H122.78V170.61H123.756ZM124.732 170.61V171.585H123.756V170.61H124.732ZM125.707 170.61V171.585H124.732V170.61H125.707ZM125.707 171.585V172.561H124.732V171.585H125.707ZM126.683 171.585V172.561H125.707V171.585H126.683ZM127.659 171.585V172.561H126.683V171.585H127.659ZM128.634 171.585V172.561H127.659V171.585H128.634ZM129.61 171.585V172.561H128.634V171.585H129.61ZM129.61 170.61V171.585H128.634V170.61H129.61ZM130.585 170.61V171.585H129.61V170.61H130.585ZM128.634 170.61V171.585H127.659V170.61H128.634ZM127.659 170.61V171.585H126.683V170.61H127.659ZM126.683 170.61V171.585H125.707V170.61H126.683ZM119.854 171.585V172.561H118.878V171.585H119.854ZM118.878 171.585V172.561H117.902V171.585H118.878ZM117.902 171.585V172.561H116.927V171.585H117.902ZM116.927 171.585V172.561H115.951V171.585H116.927ZM116.927 172.561V173.537H115.951V172.561H116.927ZM116.927 173.537V174.512H115.951V173.537H116.927ZM116.927 174.512V175.488H115.951V174.512H116.927ZM117.902 174.512V175.488H116.927V174.512H117.902ZM118.878 174.512V175.488H117.902V174.512H118.878ZM119.854 174.512V175.488H118.878V174.512H119.854ZM120.829 174.512V175.488H119.854V174.512H120.829ZM121.805 174.512V175.488H120.829V174.512H121.805ZM122.78 174.512V175.488H121.805V174.512H122.78ZM123.756 174.512V175.488H122.78V174.512H123.756ZM124.732 174.512V175.488H123.756V174.512H124.732ZM125.707 174.512V175.488H124.732V174.512H125.707ZM125.707 175.488V176.463H124.732V175.488H125.707ZM125.707 176.463V177.439H124.732V176.463H125.707ZM125.707 177.439V178.415H124.732V177.439H125.707ZM125.707 178.415V179.39H124.732V178.415H125.707ZM125.707 179.39V180.366H124.732V179.39H125.707ZM124.732 179.39V180.366H123.756V179.39H124.732ZM124.732 180.366V181.341H123.756V180.366H124.732ZM124.732 181.341V182.317H123.756V181.341H124.732ZM123.756 181.341V182.317H122.78V181.341H123.756ZM123.756 182.317V183.293H122.78V182.317H123.756ZM123.756 183.293V184.268H122.78V183.293H123.756ZM122.78 183.293V184.268H121.805V183.293H122.78ZM122.78 184.268V185.244H121.805V184.268H122.78ZM122.78 185.244V186.22H121.805V185.244H122.78ZM121.805 185.244V186.22H120.829V185.244H121.805ZM121.805 186.22V187.195H120.829V186.22H121.805ZM121.805 187.195V188.171H120.829V187.195H121.805ZM121.805 188.171V189.146H120.829V188.171H121.805ZM121.805 189.146V190.122H120.829V189.146H121.805ZM121.805 190.122V191.098H120.829V190.122H121.805ZM121.805 191.098V192.073H120.829V191.098H121.805ZM121.805 192.073V193.049H120.829V192.073H121.805ZM121.805 193.049V194.024H120.829V193.049H121.805ZM121.805 194.024V195H120.829V194.024H121.805ZM122.78 194.024V195H121.805V194.024H122.78ZM123.756 193.049V194.024H122.78V193.049H123.756ZM124.732 193.049V194.024H123.756V193.049H124.732ZM124.732 194.024V195H123.756V194.024H124.732ZM123.756 194.024V195H122.78V194.024H123.756ZM125.707 194.024V195H124.732V194.024H125.707ZM125.707 193.049V194.024H124.732V193.049H125.707ZM125.707 192.073V193.049H124.732V192.073H125.707ZM125.707 191.098V192.073H124.732V191.098H125.707ZM125.707 190.122V191.098H124.732V190.122H125.707ZM125.707 189.146V190.122H124.732V189.146H125.707ZM125.707 188.171V189.146H124.732V188.171H125.707ZM125.707 187.195V188.171H124.732V187.195H125.707ZM125.707 186.22V187.195H124.732V186.22H125.707ZM126.683 186.22V187.195H125.707V186.22H126.683ZM126.683 185.244V186.22H125.707V185.244H126.683ZM126.683 184.268V185.244H125.707V184.268H126.683ZM127.659 184.268V185.244H126.683V184.268H127.659ZM127.659 183.293V184.268H126.683V183.293H127.659ZM127.659 182.317V183.293H126.683V182.317H127.659ZM128.634 182.317V183.293H127.659V182.317H128.634ZM128.634 181.341V182.317H127.659V181.341H128.634ZM128.634 180.366V181.341H127.659V180.366H128.634ZM129.61 180.366V181.341H128.634V180.366H129.61ZM129.61 179.39V180.366H128.634V179.39H129.61ZM129.61 178.415V179.39H128.634V178.415H129.61ZM130.585 178.415V179.39H129.61V178.415H130.585ZM130.585 171.585V172.561H129.61V171.585H130.585ZM130.585 172.561V173.537H129.61V172.561H130.585ZM130.585 174.512V175.488H129.61V174.512H130.585ZM130.585 175.488V176.463H129.61V175.488H130.585ZM130.585 176.463V177.439H129.61V176.463H130.585ZM130.585 177.439V178.415H129.61V177.439H130.585ZM130.585 173.537V174.512H129.61V173.537H130.585ZM129.61 175.488V176.463H128.634V175.488H129.61ZM129.61 176.463V177.439H128.634V176.463H129.61ZM129.61 177.439V178.415H128.634V177.439H129.61ZM128.634 178.415V179.39H127.659V178.415H128.634ZM128.634 179.39V180.366H127.659V179.39H128.634ZM127.659 180.366V181.341H126.683V180.366H127.659ZM127.659 181.341V182.317H126.683V181.341H127.659ZM126.683 181.341V182.317H125.707V181.341H126.683ZM125.707 181.341V182.317H124.732V181.341H125.707ZM125.707 180.366V181.341H124.732V180.366H125.707ZM126.683 180.366V181.341H125.707V180.366H126.683ZM127.659 179.39V180.366H126.683V179.39H127.659ZM128.634 177.439V178.415H127.659V177.439H128.634ZM127.659 177.439V178.415H126.683V177.439H127.659ZM127.659 178.415V179.39H126.683V178.415H127.659ZM126.683 178.415V179.39H125.707V178.415H126.683ZM126.683 179.39V180.366H125.707V179.39H126.683ZM126.683 177.439V178.415H125.707V177.439H126.683ZM124.732 182.317V183.293H123.756V182.317H124.732ZM125.707 182.317V183.293H124.732V182.317H125.707ZM126.683 182.317V183.293H125.707V182.317H126.683ZM126.683 183.293V184.268H125.707V183.293H126.683ZM125.707 184.268V185.244H124.732V184.268H125.707ZM125.707 183.293V184.268H124.732V183.293H125.707ZM124.732 183.293V184.268H123.756V183.293H124.732ZM124.732 184.268V185.244H123.756V184.268H124.732ZM124.732 185.244V186.22H123.756V185.244H124.732ZM123.756 185.244V186.22H122.78V185.244H123.756ZM123.756 184.268V185.244H122.78V184.268H123.756ZM125.707 185.244V186.22H124.732V185.244H125.707ZM124.732 186.22V187.195H123.756V186.22H124.732ZM124.732 187.195V188.171H123.756V187.195H124.732ZM124.732 188.171V189.146H123.756V188.171H124.732ZM124.732 189.146V190.122H123.756V189.146H124.732ZM124.732 190.122V191.098H123.756V190.122H124.732ZM124.732 191.098V192.073H123.756V191.098H124.732ZM124.732 192.073V193.049H123.756V192.073H124.732ZM123.756 192.073V193.049H122.78V192.073H123.756ZM123.756 191.098V192.073H122.78V191.098H123.756ZM123.756 190.122V191.098H122.78V190.122H123.756ZM123.756 189.146V190.122H122.78V189.146H123.756ZM123.756 188.171V189.146H122.78V188.171H123.756ZM123.756 187.195V188.171H122.78V187.195H123.756ZM123.756 186.22V187.195H122.78V186.22H123.756ZM122.78 187.195V188.171H121.805V187.195H122.78ZM122.78 188.171V189.146H121.805V188.171H122.78ZM122.78 189.146V190.122H121.805V189.146H122.78ZM122.78 186.22V187.195H121.805V186.22H122.78ZM122.78 190.122V191.098H121.805V190.122H122.78ZM122.78 191.098V192.073H121.805V191.098H122.78ZM122.78 192.073V193.049H121.805V192.073H122.78ZM122.78 193.049V194.024H121.805V193.049H122.78ZM117.902 173.537V174.512H116.927V173.537H117.902ZM118.878 173.537V174.512H117.902V173.537H118.878ZM119.854 173.537V174.512H118.878V173.537H119.854ZM120.829 173.537V174.512H119.854V173.537H120.829ZM118.878 172.561V173.537H117.902V172.561H118.878ZM117.902 172.561V173.537H116.927V172.561H117.902ZM119.854 172.561V173.537H118.878V172.561H119.854ZM120.829 172.561V173.537H119.854V172.561H120.829ZM121.805 172.561V173.537H120.829V172.561H121.805ZM121.805 171.585V172.561H120.829V171.585H121.805ZM120.829 171.585V172.561H119.854V171.585H120.829ZM122.78 171.585V172.561H121.805V171.585H122.78ZM123.756 171.585V172.561H122.78V171.585H123.756ZM124.732 171.585V172.561H123.756V171.585H124.732ZM123.756 172.561V173.537H122.78V172.561H123.756ZM122.78 172.561V173.537H121.805V172.561H122.78ZM121.805 173.537V174.512H120.829V173.537H121.805ZM122.78 173.537V174.512H121.805V173.537H122.78ZM123.756 173.537V174.512H122.78V173.537H123.756ZM124.732 173.537V174.512H123.756V173.537H124.732ZM125.707 173.537V174.512H124.732V173.537H125.707ZM126.683 173.537V174.512H125.707V173.537H126.683ZM126.683 174.512V175.488H125.707V174.512H126.683ZM126.683 175.488V176.463H125.707V175.488H126.683ZM126.683 176.463V177.439H125.707V176.463H126.683ZM127.659 176.463V177.439H126.683V176.463H127.659ZM128.634 176.463V177.439H127.659V176.463H128.634ZM128.634 175.488V176.463H127.659V175.488H128.634ZM127.659 175.488V176.463H126.683V175.488H127.659ZM127.659 174.512V175.488H126.683V174.512H127.659ZM128.634 174.512V175.488H127.659V174.512H128.634ZM129.61 174.512V175.488H128.634V174.512H129.61ZM129.61 173.537V174.512H128.634V173.537H129.61ZM128.634 173.537V174.512H127.659V173.537H128.634ZM127.659 173.537V174.512H126.683V173.537H127.659ZM127.659 172.561V173.537H126.683V172.561H127.659ZM128.634 172.561V173.537H127.659V172.561H128.634ZM129.61 172.561V173.537H128.634V172.561H129.61ZM126.683 172.561V173.537H125.707V172.561H126.683ZM125.707 172.561V173.537H124.732V172.561H125.707ZM124.732 172.561V173.537H123.756V172.561H124.732Z" fill="black"/>
<g opacity="0.7">
<rect x="183" y="153" width="29" height="56" fill="#FCF6F6"/>
<rect x="183" y="153" width="29" height="56" fill="#FCF6F6"/>
<rect x="183" y="153" width="29" height="56" fill="#FCF6F6"/>
<rect x="183" y="153" width="29" height="56" fill="#FCF6F6"/>
</g>
<path d="M190.927 170.61V171.585H189.951V170.61H190.927ZM191.902 170.61V171.585H190.927V170.61H191.902ZM192.878 170.61V171.585H191.902V170.61H192.878ZM193.854 170.61V171.585H192.878V170.61H193.854ZM194.829 170.61V171.585H193.854V170.61H194.829ZM195.805 170.61V171.585H194.829V170.61H195.805ZM196.78 170.61V171.585H195.805V170.61H196.78ZM197.756 170.61V171.585H196.78V170.61H197.756ZM198.732 170.61V171.585H197.756V170.61H198.732ZM199.707 170.61V171.585H198.732V170.61H199.707ZM199.707 171.585V172.561H198.732V171.585H199.707ZM200.683 171.585V172.561H199.707V171.585H200.683ZM201.659 171.585V172.561H200.683V171.585H201.659ZM202.634 171.585V172.561H201.659V171.585H202.634ZM203.61 171.585V172.561H202.634V171.585H203.61ZM203.61 170.61V171.585H202.634V170.61H203.61ZM204.585 170.61V171.585H203.61V170.61H204.585ZM202.634 170.61V171.585H201.659V170.61H202.634ZM201.659 170.61V171.585H200.683V170.61H201.659ZM200.683 170.61V171.585H199.707V170.61H200.683ZM193.854 171.585V172.561H192.878V171.585H193.854ZM192.878 171.585V172.561H191.902V171.585H192.878ZM191.902 171.585V172.561H190.927V171.585H191.902ZM190.927 171.585V172.561H189.951V171.585H190.927ZM190.927 172.561V173.537H189.951V172.561H190.927ZM190.927 173.537V174.512H189.951V173.537H190.927ZM190.927 174.512V175.488H189.951V174.512H190.927ZM191.902 174.512V175.488H190.927V174.512H191.902ZM192.878 174.512V175.488H191.902V174.512H192.878ZM193.854 174.512V175.488H192.878V174.512H193.854ZM194.829 174.512V175.488H193.854V174.512H194.829ZM195.805 174.512V175.488H194.829V174.512H195.805ZM196.78 174.512V175.488H195.805V174.512H196.78ZM197.756 174.512V175.488H196.78V174.512H197.756ZM198.732 174.512V175.488H197.756V174.512H198.732ZM199.707 174.512V175.488H198.732V174.512H199.707ZM199.707 175.488V176.463H198.732V175.488H199.707ZM199.707 176.463V177.439H198.732V176.463H199.707ZM199.707 177.439V178.415H198.732V177.439H199.707ZM199.707 178.415V179.39H198.732V178.415H199.707ZM199.707 179.39V180.366H198.732V179.39H199.707ZM198.732 179.39V180.366H197.756V179.39H198.732ZM198.732 180.366V181.341H197.756V180.366H198.732ZM198.732 181.341V182.317H197.756V181.341H198.732ZM197.756 181.341V182.317H196.78V181.341H197.756ZM197.756 182.317V183.293H196.78V182.317H197.756ZM197.756 183.293V184.268H196.78V183.293H197.756ZM196.78 183.293V184.268H195.805V183.293H196.78ZM196.78 184.268V185.244H195.805V184.268H196.78ZM196.78 185.244V186.22H195.805V185.244H196.78ZM195.805 185.244V186.22H194.829V185.244H195.805ZM195.805 186.22V187.195H194.829V186.22H195.805ZM195.805 187.195V188.171H194.829V187.195H195.805ZM195.805 188.171V189.146H194.829V188.171H195.805ZM195.805 189.146V190.122H194.829V189.146H195.805ZM195.805 190.122V191.098H194.829V190.122H195.805ZM195.805 191.098V192.073H194.829V191.098H195.805ZM195.805 192.073V193.049H194.829V192.073H195.805ZM195.805 193.049V194.024H194.829V193.049H195.805ZM195.805 194.024V195H194.829V194.024H195.805ZM196.78 194.024V195H195.805V194.024H196.78ZM197.756 193.049V194.024H196.78V193.049H197.756ZM198.732 193.049V194.024H197.756V193.049H198.732ZM198.732 194.024V195H197.756V194.024H198.732ZM197.756 194.024V195H196.78V194.024H197.756ZM199.707 194.024V195H198.732V194.024H199.707ZM199.707 193.049V194.024H198.732V193.049H199.707ZM199.707 192.073V193.049H198.732V192.073H199.707ZM199.707 191.098V192.073H198.732V191.098H199.707ZM199.707 190.122V191.098H198.732V190.122H199.707ZM199.707 189.146V190.122H198.732V189.146H199.707ZM199.707 188.171V189.146H198.732V188.171H199.707ZM199.707 187.195V188.171H198.732V187.195H199.707ZM199.707 186.22V187.195H198.732V186.22H199.707ZM200.683 186.22V187.195H199.707V186.22H200.683ZM200.683 185.244V186.22H199.707V185.244H200.683ZM200.683 184.268V185.244H199.707V184.268H200.683ZM201.659 184.268V185.244H200.683V184.268H201.659ZM201.659 183.293V184.268H200.683V183.293H201.659ZM201.659 182.317V183.293H200.683V182.317H201.659ZM202.634 182.317V183.293H201.659V182.317H202.634ZM202.634 181.341V182.317H201.659V181.341H202.634ZM202.634 180.366V181.341H201.659V180.366H202.634ZM203.61 180.366V181.341H202.634V180.366H203.61ZM203.61 179.39V180.366H202.634V179.39H203.61ZM203.61 178.415V179.39H202.634V178.415H203.61ZM204.585 178.415V179.39H203.61V178.415H204.585ZM204.585 171.585V172.561H203.61V171.585H204.585ZM204.585 172.561V173.537H203.61V172.561H204.585ZM204.585 174.512V175.488H203.61V174.512H204.585ZM204.585 175.488V176.463H203.61V175.488H204.585ZM204.585 176.463V177.439H203.61V176.463H204.585ZM204.585 177.439V178.415H203.61V177.439H204.585ZM204.585 173.537V174.512H203.61V173.537H204.585ZM203.61 175.488V176.463H202.634V175.488H203.61ZM203.61 176.463V177.439H202.634V176.463H203.61ZM203.61 177.439V178.415H202.634V177.439H203.61ZM202.634 178.415V179.39H201.659V178.415H202.634ZM202.634 179.39V180.366H201.659V179.39H202.634ZM201.659 180.366V181.341H200.683V180.366H201.659ZM201.659 181.341V182.317H200.683V181.341H201.659ZM200.683 181.341V182.317H199.707V181.341H200.683ZM199.707 181.341V182.317H198.732V181.341H199.707ZM199.707 180.366V181.341H198.732V180.366H199.707ZM200.683 180.366V181.341H199.707V180.366H200.683ZM201.659 179.39V180.366H200.683V179.39H201.659ZM202.634 177.439V178.415H201.659V177.439H202.634ZM201.659 177.439V178.415H200.683V177.439H201.659ZM201.659 178.415V179.39H200.683V178.415H201.659ZM200.683 178.415V179.39H199.707V178.415H200.683ZM200.683 179.39V180.366H199.707V179.39H200.683ZM200.683 177.439V178.415H199.707V177.439H200.683ZM198.732 182.317V183.293H197.756V182.317H198.732ZM199.707 182.317V183.293H198.732V182.317H199.707ZM200.683 182.317V183.293H199.707V182.317H200.683ZM200.683 183.293V184.268H199.707V183.293H200.683ZM199.707 184.268V185.244H198.732V184.268H199.707ZM199.707 183.293V184.268H198.732V183.293H199.707ZM198.732 183.293V184.268H197.756V183.293H198.732ZM198.732 184.268V185.244H197.756V184.268H198.732ZM198.732 185.244V186.22H197.756V185.244H198.732ZM197.756 185.244V186.22H196.78V185.244H197.756ZM197.756 184.268V185.244H196.78V184.268H197.756ZM199.707 185.244V186.22H198.732V185.244H199.707ZM198.732 186.22V187.195H197.756V186.22H198.732ZM198.732 187.195V188.171H197.756V187.195H198.732ZM198.732 188.171V189.146H197.756V188.171H198.732ZM198.732 189.146V190.122H197.756V189.146H198.732ZM198.732 190.122V191.098H197.756V190.122H198.732ZM198.732 191.098V192.073H197.756V191.098H198.732ZM198.732 192.073V193.049H197.756V192.073H198.732ZM197.756 192.073V193.049H196.78V192.073H197.756ZM197.756 191.098V192.073H196.78V191.098H197.756ZM197.756 190.122V191.098H196.78V190.122H197.756ZM197.756 189.146V190.122H196.78V189.146H197.756ZM197.756 188.171V189.146H196.78V188.171H197.756ZM197.756 187.195V188.171H196.78V187.195H197.756ZM197.756 186.22V187.195H196.78V186.22H197.756ZM196.78 187.195V188.171H195.805V187.195H196.78ZM196.78 188.171V189.146H195.805V188.171H196.78ZM196.78 189.146V190.122H195.805V189.146H196.78ZM196.78 186.22V187.195H195.805V186.22H196.78ZM196.78 190.122V191.098H195.805V190.122H196.78ZM196.78 191.098V192.073H195.805V191.098H196.78ZM196.78 192.073V193.049H195.805V192.073H196.78ZM196.78 193.049V194.024H195.805V193.049H196.78ZM191.902 173.537V174.512H190.927V173.537H191.902ZM192.878 173.537V174.512H191.902V173.537H192.878ZM193.854 173.537V174.512H192.878V173.537H193.854ZM194.829 173.537V174.512H193.854V173.537H194.829ZM192.878 172.561V173.537H191.902V172.561H192.878ZM191.902 172.561V173.537H190.927V172.561H191.902ZM193.854 172.561V173.537H192.878V172.561H193.854ZM194.829 172.561V173.537H193.854V172.561H194.829ZM195.805 172.561V173.537H194.829V172.561H195.805ZM195.805 171.585V172.561H194.829V171.585H195.805ZM194.829 171.585V172.561H193.854V171.585H194.829ZM196.78 171.585V172.561H195.805V171.585H196.78ZM197.756 171.585V172.561H196.78V171.585H197.756ZM198.732 171.585V172.561H197.756V171.585H198.732ZM197.756 172.561V173.537H196.78V172.561H197.756ZM196.78 172.561V173.537H195.805V172.561H196.78ZM195.805 173.537V174.512H194.829V173.537H195.805ZM196.78 173.537V174.512H195.805V173.537H196.78ZM197.756 173.537V174.512H196.78V173.537H197.756ZM198.732 173.537V174.512H197.756V173.537H198.732ZM199.707 173.537V174.512H198.732V173.537H199.707ZM200.683 173.537V174.512H199.707V173.537H200.683ZM200.683 174.512V175.488H199.707V174.512H200.683ZM200.683 175.488V176.463H199.707V175.488H200.683ZM200.683 176.463V177.439H199.707V176.463H200.683ZM201.659 176.463V177.439H200.683V176.463H201.659ZM202.634 176.463V177.439H201.659V176.463H202.634ZM202.634 175.488V176.463H201.659V175.488H202.634ZM201.659 175.488V176.463H200.683V175.488H201.659ZM201.659 174.512V175.488H200.683V174.512H201.659ZM202.634 174.512V175.488H201.659V174.512H202.634ZM203.61 174.512V175.488H202.634V174.512H203.61ZM203.61 173.537V174.512H202.634V173.537H203.61ZM202.634 173.537V174.512H201.659V173.537H202.634ZM201.659 173.537V174.512H200.683V173.537H201.659ZM201.659 172.561V173.537H200.683V172.561H201.659ZM202.634 172.561V173.537H201.659V172.561H202.634ZM203.61 172.561V173.537H202.634V172.561H203.61ZM200.683 172.561V173.537H199.707V172.561H200.683ZM199.707 172.561V173.537H198.732V172.561H199.707ZM198.732 172.561V173.537H197.756V172.561H198.732Z" fill="black"/>
<path d="M280.203 53.3353L278.86 49.868L276.103 50.9357L276.235 51.275C262.126 52.252 193.059 86.6439 149.506 103.514C106.902 120.016 34.9487 140.571 21.4701 149.681L17.8048 151.1L19.1756 154.639L19.1837 154.636C22.6627 163.618 61.5433 175.068 162.131 136.107C263.371 96.8923 284.016 62.0444 280.203 53.3353Z" fill="#8C4C4C"/>
<path d="M276.351 48.0511C266.212 46.3134 193.467 82.7297 148.241 100.247C103.023 117.762 24.7196 139.853 18.4045 147.964C11.9222 156.283 46.5332 177.126 160.865 132.84C275.205 88.5516 286.746 49.8328 276.351 48.0511Z" fill="#A85D5D"/>
<path d="M276.351 48.0511C266.212 46.3134 193.467 82.7297 148.241 100.247C103.023 117.762 24.7196 139.853 18.4045 147.964C11.9222 156.283 46.5332 177.126 160.865 132.84C275.205 88.5516 286.746 49.8328 276.351 48.0511Z" fill="#A85D5D"/>
<path d="M155.988 44.7594C144.298 50.8937 138.273 64.6731 134.958 65.9571C131.652 67.2378 117.909 61.1154 105.144 64.4533C89.017 68.6653 81.3096 137.387 81.3096 137.387C81.3096 137.387 116.042 131.458 154.551 116.542C193.06 101.626 222.733 82.6084 222.733 82.6084C222.733 82.6084 170.745 37.0087 155.988 44.7594Z" fill="#8C4C4C"/>
<path d="M152.024 110.013C120.742 122.13 91.9375 128.321 82.2342 130.215C81.612 134.641 81.3101 137.387 81.3101 137.387C81.3101 137.387 116.043 131.458 154.552 116.542C193.06 101.626 222.733 82.6082 222.733 82.6082C222.733 82.6082 220.652 80.7853 217.211 77.9326C208.772 83.0663 183.313 97.8937 152.024 110.013Z" fill="#FFCE54"/>
<g opacity="0.1">
<path d="M107.673 70.9811C120.437 67.6434 134.181 73.7657 137.487 72.4849C140.802 71.2009 146.827 57.4215 158.517 51.2872C170.329 45.0896 205.969 73.036 219.741 84.4602C221.691 83.2758 222.734 82.6078 222.734 82.6078C222.734 82.6078 170.746 37.0085 155.989 44.7592C144.299 50.8935 138.274 64.6729 134.959 65.9569C131.652 67.2376 117.909 61.1152 105.145 64.4531C89.0176 68.6651 81.3101 137.387 81.3101 137.387C81.3101 137.387 82.5304 137.179 84.7628 136.743C87.2536 119.019 94.7687 74.3573 107.673 70.9811Z" fill="white"/>
</g>
<rect width="18.6681" height="18.6988" rx="6" transform="matrix(0.891407 -0.453203 0.44704 0.894514 269 125.46)" fill="#383434"/>
<rect x="70" y="278" width="178" height="21" fill="#856161"/>
<rect x="145" y="261" width="29" height="8" rx="3" fill="#451818"/>
<rect x="145" y="260" width="29" height="7" rx="3" fill="#BD4B4B"/>
<rect x="183" y="261" width="29" height="8" rx="3" fill="#451818"/>
<rect x="183" y="260" width="29" height="7" rx="3" fill="#BD4B4B"/>
<rect x="106" y="261" width="29" height="8" rx="3" fill="#451818"/>
<rect x="106" y="260" width="29" height="7" rx="3" fill="#BD4B4B"/>
</svg>
